M48
; DRILL file KiCad 10.0.6 date 2026-09-09T19:02:21
; FORMAT={-:-/ absolute / metric / decimal}
; #@! TF.CreationDate,2026-09-09T19:02:21-06:00
; #@! TF.GenerationSoftware,Kicad,Pcbnew,10.0.6
; #@! TF.FileFunction,Plated,1,2,PTH
FMAT,2
METRIC
; #@! TA.AperFunction,Plated,PTH,ViaDrill
T1C0.600
; #@! TA.AperFunction,Plated,PTH,ViaDrill
T2C0.700
; #@! TA.AperFunction,Plated,PTH,ComponentDrill
T3C0.800
; #@! TA.AperFunction,Plated,PTH,ComponentDrill
T4C0.900
; #@! TA.AperFunction,Plated,PTH,ComponentDrill
T5C0.950
; #@! TA.AperFunction,Plated,PTH,ComponentDrill
T6C1.000
%
G90
G05
T1
X119.5Y-77.5
X132.62Y-61.0
X139.75Y-61.0
T2
X106.0Y-56.5
X108.02Y-56.5
X110.0Y-63.0
X128.69Y-63.0
X142.25Y-63.0
T3
X146.5Y-65.5
X146.5Y-75.66
X152.0Y-65.5
X152.0Y-75.66
X157.0Y-65.5
X157.0Y-75.66
X162.0Y-65.5
X162.0Y-75.66
T4
X101.46Y-77.5
X101.46Y-83.5
X101.5Y-65.5
X101.5Y-71.5
X104.0Y-77.5
X104.0Y-83.5
X104.04Y-65.5
X104.04Y-71.5
T5
X110.0Y-90.0
X112.5Y-90.0
X115.0Y-90.0
X117.5Y-90.0
X124.75Y-90.055
X127.25Y-90.055
X129.75Y-90.055
X132.25Y-90.055
X134.75Y-90.055
X137.25Y-90.055
X139.75Y-90.055
X142.25Y-90.055
X149.75Y-90.0
X152.25Y-90.0
X154.75Y-90.0
T6
X108.37Y-46.23
X108.37Y-48.77
X110.91Y-46.23
X110.91Y-48.77
X113.45Y-46.23
X113.45Y-48.77
X115.99Y-46.23
X115.99Y-48.77
X118.53Y-46.23
X118.53Y-48.77
X121.07Y-46.23
X121.07Y-48.77
X123.61Y-46.23
X123.61Y-48.77
X126.15Y-46.23
X126.15Y-48.77
X128.69Y-46.23
X128.69Y-48.77
X131.23Y-46.23
X131.23Y-48.77
X133.77Y-46.23
X133.77Y-48.77
X136.31Y-46.23
X136.31Y-48.77
X138.85Y-46.23
X138.85Y-48.77
X141.39Y-46.23
X141.39Y-48.77
X143.93Y-46.23
X143.93Y-48.77
X146.47Y-46.23
X146.47Y-48.77
X149.01Y-46.23
X149.01Y-48.77
X151.55Y-46.23
X151.55Y-48.77
X154.09Y-46.23
X154.09Y-48.77
X156.63Y-46.23
X156.63Y-48.77
M30
